<svg id="Layer_1" data-name="Layer 1" xmlns="http://www.w3.org/2000/svg" viewBox="0 0 230.06 189.13"><defs><style>.cls-1,.cls-2{fill:#fff;}.cls-2{stroke:#fff;stroke-miterlimit:10;}</style></defs><path class="cls-1" d="M-363.51,335.17h0A107.57,107.57,0,0,0-391,331.1a94.57,94.57,0,0,0-94.57,94.57,107.18,107.18,0,0,0,3.09,24,53.72,53.72,0,0,1,2,6.5c.64-1.16,10.39-25.73,12.33-28.3-.07-1.22-.09-1-.09-2.22a77.23,77.23,0,0,1,73.19-77.12l2.38-1c1.06-.43,2.11-.85,3.14-1.25a29,29,0,0,1,3-1.48,32.92,32.92,0,0,1,8.9-2.22c5-.8,9.13-.76,16.31-.75,3,0,8.15,0,14.84,0-2.47-.91-5-1.85-7.49-2.84Q-358.88,337.11-363.51,335.17Z" transform="translate(486.24 -331.1)"/><path class="cls-1" d="M-319.15,481.3c-2.6-.13-4.72-.12-8.84,0-2.69.08-6,.19-9.86.37A77,77,0,0,1-391,502.9a76.75,76.75,0,0,1-42.29-12.65c-.08.06-13.84,10.69-14.59,11.17a96.15,96.15,0,0,0,29.22,14.7A110.53,110.53,0,0,0-391,520.23a94.44,94.44,0,0,0,76.22-38.58C-315.85,481.54-317.34,481.4-319.15,481.3Z" transform="translate(486.24 -331.1)"/><path class="cls-1" d="M-431.82,408.77s-20.76,3-34.11,29.67l-20,54.88s-2.22,7.42,5.93,8.16a55.12,55.12,0,0,0,29.3-7,55.25,55.25,0,0,0,22.25-23.74L-409.94,421h52.67s-3,11.12-28.93,17.8h-21.51l-5.19,14.83h29.34s15.9,1.49,36.67-20,8.16-27.45,5.19-28.19h-62.72l8.76-23.36s6.49-15.21,31-18.17h48.3s-2.87,11.86-25.59,18.17H-387l-5.84,15.2h50.44s19.28,0,37.09-21.51,5.19-25.21,5.19-25.21l-5.19-.75H-372s-28.46,2.23-40.6,32.27h-32.69l-5.42,15.2h32.64l-24.48,67.5s-1.48,9.64-23.73,19.28l15.57-42.27s3.52-8.16,13.63-14.47Z" transform="translate(486.24 -331.1)"/><path class="cls-2" d="M-334.17,451.51l4.71-1.54a3,3,0,0,0,1.21-.65,2.06,2.06,0,0,0,.63-1.19l7.83-35.34a1.51,1.51,0,0,0-.17-1.22,1.47,1.47,0,0,0-.87-.62l-4.71-1.53.53-2.34h22.27l-.54,2.34-4.65,1.53a3.45,3.45,0,0,0-1.17.67,2.28,2.28,0,0,0-.7,1.17l-7.85,35.34a1.44,1.44,0,0,0,.16,1.22,1.69,1.69,0,0,0,.94.62l4.68,1.54-.57,2.37h-22.23Z" transform="translate(486.24 -331.1)"/><path class="cls-2" d="M-303.68,436.26a32.94,32.94,0,0,1,1.84-11.05,31.51,31.51,0,0,1,5.43-9.73,26.49,26.49,0,0,1,8.64-6.88A25.35,25.35,0,0,1-276.2,406a22.22,22.22,0,0,1,10.7,2.36,15.61,15.61,0,0,1,6.57,6.6,21.3,21.3,0,0,1,2.26,9.83,32.9,32.9,0,0,1-2,11.37,30.46,30.46,0,0,1-5.67,9.62,27.17,27.17,0,0,1-8.73,6.67,25,25,0,0,1-11.1,2.46,23,23,0,0,1-10.29-2.16,15.64,15.64,0,0,1-6.79-6.31A20.39,20.39,0,0,1-303.68,436.26Zm20.49,14.45A10.13,10.13,0,0,0-277.4,449a16,16,0,0,0,4.41-4.56,28.67,28.67,0,0,0,3.09-6.39,43.84,43.84,0,0,0,1.84-7.19,41.92,41.92,0,0,0,.62-6.93,23.64,23.64,0,0,0-1-7.36,9.32,9.32,0,0,0-3.14-4.66,9,9,0,0,0-5.59-1.62A10.18,10.18,0,0,0-283,412a16.07,16.07,0,0,0-4.43,4.62,28.56,28.56,0,0,0-3.08,6.38,43.87,43.87,0,0,0-1.79,7.07,41.16,41.16,0,0,0-.58,6.64,25.7,25.7,0,0,0,.93,7.24,10.08,10.08,0,0,0,3.06,4.95A8.59,8.59,0,0,0-283.19,450.71Zm8.13,17.81a8.48,8.48,0,0,1-3.09-.45,3.93,3.93,0,0,1-1.79-1.38,18.16,18.16,0,0,1-1.41-2.41l-5.11-9.9,10.16-1.17,5.08,9.26a6.4,6.4,0,0,0,1,1.36,3.14,3.14,0,0,0,1.37.88l5.45,1.44-.5,2.37Z" transform="translate(486.24 -331.1)"/><path class="cls-1" d="M-337.85,481.66a57.1,57.1,0,0,0,9.12-10.75h19.28c-3,8.16-3,7.42-5.36,10.74" transform="translate(486.24 -331.1)"/></svg>